# xmcd
#
# Track frame offsets: 
#        150
#        15635
#        30520
#        46545
#        59202
#        74925
#        94042
#        104165
#        114392
#        126547
#        153215
#        175735
#        237120
#        267000
#
# Disc length: 3877 seconds
#
# Revision: 1
# Processed by: cddbd v1.5.1PL0 Copyright (c) Steve Scherf et al.
# Submitted via: ExactAudioCopy v0.95a5
#
DISCID=c00f230e
DTITLE=John Mayall's Bluesbreakers - Beano's Boys
DYEAR=1900
DGENRE=Blues
TTITLE0=Picture on the wall
TTITLE1=Mayfair blues
TTITLE2=Worried love
TTITLE3=Supermarket
TTITLE4=Snowy wind
TTITLE5=Suspiscion
TTITLE6=Crawling up a hill
TTITLE7=Crocodile walk
TTITLE8=Bye, bye, bird
TTITLE9=That's all right baby
TTITLE10=Checkin' on my baby
TTITLE11=Parchment Farm
TTITLE12=Time has come
TTITLE13=2401
EXTD=
EXTT0=
EXTT1=
EXTT2=
EXTT3=
EXTT4=
EXTT5=
EXTT6=
EXTT7=
EXTT8=
EXTT9=
EXTT10=
EXTT11=
EXTT12=
EXTT13=
PLAYORDER=
